<svg xmlns="http://www.w3.org/2000/svg" data-name="Layer 1" viewBox="0 0 64 64"><rect width="45" height="60" x="7" y="2" fill="#e3fcfd" rx="3"/><path fill="#42eaf5" d="M52 10h5a3 3 0 0 1 3 3v8a3 3 0 0 1-3 3H52a0 0 0 0 1 0 0V10A0 0 0 0 1 52 10zM52 24h5a3 3 0 0 1 3 3v8a3 3 0 0 1-3 3H52a0 0 0 0 1 0 0V24A0 0 0 0 1 52 24zM52 38h5a3 3 0 0 1 3 3v8a3 3 0 0 1-3 3H52a0 0 0 0 1 0 0V38A0 0 0 0 1 52 38zM29 26a5 5 0 0 1-5 5h0a5 5 0 0 1-5-5h0a5 5 0 0 1 5-5zM43 40a5 5 0 0 1-5 5h0a5 5 0 0 1-5-5h0a5 5 0 0 1 5-5z"/><path fill="#007da1" d="M57,8H54V5a5.00588,5.00588,0,0,0-5-5H10A5.00588,5.00588,0,0,0,5,5v8H4a2,2,0,0,0,0,4H5v7H4a2,2,0,0,0,0,4H5v8H4a2,2,0,0,0,0,4H5v7H4a2,2,0,0,0,0,4H5v8a5.00588,5.00588,0,0,0,5,5H49a5.00588,5.00588,0,0,0,5-5V54h3a5.00588,5.00588,0,0,0,5-5V41a4.95129,4.95129,0,0,0-1.02557-3A4.95129,4.95129,0,0,0,62,35V27a4.95129,4.95129,0,0,0-1.02557-3A4.95129,4.95129,0,0,0,62,21V13A5.00588,5.00588,0,0,0,57,8Zm0,4a1.0013,1.0013,0,0,1,1,1v8a1.0013,1.0013,0,0,1-1,1H54V12Zm1,15v8a1.0013,1.0013,0,0,1-1,1H54V26h3A1.0013,1.0013,0,0,1,58,27ZM50,59a1.0013,1.0013,0,0,1-1,1H10a1.0013,1.0013,0,0,1-1-1V51h1a2,2,0,0,0,0-4H9V40h1a2,2,0,0,0,0-4H9V28h1a2,2,0,0,0,0-4H9V17h1a2,2,0,0,0,0-4H9V5a1.0013,1.0013,0,0,1,1-1H49a1.0013,1.0013,0,0,1,1,1Zm8-10a1.0013,1.0013,0,0,1-1,1H54V40h3a1.0013,1.0013,0,0,1,1,1Z"/><path fill="#007da1" d="M36 12a2.00022 2.00022 0 0 0-.00009-4A2.00022 2.00022 0 0 0 36 12zM44 8a2.0002 2.0002 0 0 0 .00008 4A2.0002 2.0002 0 0 0 44 8zM39.41406 33.58594A2.00025 2.00025 0 0 0 38 33a7.00517 7.00517 0 0 0-6.56842 4.60345l-5.035-5.035A7.00517 7.00517 0 0 0 31 26a2.00025 2.00025 0 0 0-.58594-1.41406l-5-5A2.00025 2.00025 0 0 0 24 19a6.99383 6.99383 0 0 0-4.36457 12.46357l12.901 12.901A6.99382 6.99382 0 0 0 45 40a2.00025 2.00025 0 0 0-.58594-1.41406zM23.26318 23.09131l3.64551 3.64551a3.00033 3.00033 0 1 1-3.64551-3.64551zM38 43a3.11272 3.11272 0 0 1-2.44594-1.27418 3.01873 3.01873 0 0 1 1.7092-4.63446l3.64543 3.64546A3.00588 3.00588 0 0 1 38 43z"/></svg>